#!OML:ASF F:\VICON\USERDATA\INSTALL\rory3\rory3.ASF
:FULLY-SPECIFIED
:DEGREES
4634
root 6.08649 17.8398 -7.07199 363.845 -109.188 713.465
lowerback 12.3713 0.287699 1.90368
upperback 1.52183 0.631436 1.52829
thorax -5.3358 0.245018 0.426146
lowerneck -18.7304 1.86563 -9.40237
upperneck 38.3513 3.41719 3.51486
head 16.8105 -0.040634 3.73024
rclavicle 2.3059e-014 3.10104e-014
rhumerus -36.5771 -10.5615 -75.869
rradius 36.1666
rwrist 6.59792
rhand -16.4572 10.105
rfingers 7.12502
rthumb 9.75903 -19.6489
lclavicle 2.3059e-014 3.10104e-014
lhumerus -31.6945 4.69341 84.2307
lradius 35.4192
lwrist -4.59401
lhand -22.3712 20.0214
lfingers 7.12502
lthumb 4.05036 49.9627
rfemur -7.94562 3.43531 17.1887
rtibia 33.2463
rfoot -19.1356 0.724675
rtoes 3.84534
lfemur -13.296 -4.40105 -16.0945
ltibia 27.1405
lfoot -13.1245 -6.92424
ltoes -11.13
4635
root 6.0728 17.8486 -7.05161 364.283 -108.801 713.053
lowerback 12.3405 0.295561 1.814
upperback 1.58509 0.624298 1.48795
thorax -5.25265 0.243401 0.435651
lowerneck -18.8701 1.8634 -9.35859
upperneck 38.3529 3.41558 3.55573
head 16.8456 -0.0237652 3.74649
rclavicle -1.53064e-014 -5.56597e-015
rhumerus -36.5161 -10.6591 -75.6822
rradius 36.0559
rwrist 6.34897
rhand -16.7347 10.2176
rfingers 7.12502
rthumb 9.49133 -19.5486
lclavicle -1.53064e-014 -5.56597e-015
lhumerus -31.6761 4.94339 84.2233
lradius 35.2924
lwrist -5.01764
lhand -22.1862 19.5523
lfingers 7.12502
lthumb 4.22895 49.4901
rfemur -7.80774 3.12494 16.9725
rtibia 33.0202
rfoot -19.029 0.708445
rtoes 3.82497
lfemur -13.2446 -4.83846 -15.7538
ltibia 26.8061
lfoot -12.3396 -5.37356
ltoes -10.2533
4636
root 6.05732 17.8535 -7.03258 364.559 -108.455 712.797
lowerback 12.3521 0.380034 1.77895
upperback 1.5738 0.730034 1.4092
thorax -5.2698 0.296209 0.355136
lowerneck -18.7355 1.79181 -9.24942
upperneck 38.2715 3.22246 3.63631
head 16.7853 -0.0652432 3.72293
rclavicle -5.1684e-015 1.59028e-015
rhumerus -36.667 -10.8999 -75.4286
rradius 35.9704
rwrist 5.9062
rhand -16.515 10.3307
rfingers 7.12502
rthumb 9.70329 -19.4258
lclavicle -5.1684e-015 1.59028e-015
lhumerus -31.7989 4.7569 84.2277
lradius 35.2164
lwrist -5.4586
lhand -21.6838 19.2395
lfingers 7.12502
lthumb 4.71412 49.1671
rfemur -7.62523 2.87804 16.8318
rtibia 32.7451
rfoot -18.8894 0.578536
rtoes 3.30511
lfemur -13.1662 -5.15927 -15.3442
ltibia 26.4913
lfoot -11.8122 -3.84259
ltoes -10.461
4637
root 6.04046 17.8605 -7.0123 364.867 -108.191 712.464
lowerback 12.4309 0.659589 1.79862
upperback 1.51476 1.0999 1.19
thorax -5.36845 0.476999 0.0514464
lowerneck -18.3506 1.62075 -8.78988
upperneck 38.203 2.72967 3.64344
head 16.7056 -0.192 3.54451
rclavicle 1.66979e-014 4.77083e-015
rhumerus -37.1369 -11.9975 -75.0386
rradius 35.9032
rwrist 6.02759
rhand -16.6132 10.4081
rfingers 7.12502
rthumb 9.60856 -19.3528
lclavicle 1.66979e-014 4.77083e-015
lhumerus -31.8895 3.85595 84.2892
lradius 35.022
lwrist -5.89901
lhand -20.9116 18.8849
lfingers 7.12502
lthumb 5.45967 48.7945
rfemur -7.34264 2.96902 16.6929
rtibia 32.4115
rfoot -18.7365 0.247945
rtoes 2.81938
lfemur -13.053 -5.26182 -14.9521
ltibia 26.2289
lfoot -11.4829 -2.6932
ltoes -10.1974
4638
root 6.0205 17.8614 -6.99272 365.303 -107.984 712.001
lowerback 12.47 0.752608 1.65603
upperback 1.54899 1.20108 1.13825
thorax -5.35482 0.529366 0.0602912
lowerneck -18.3653 1.59921 -8.83937
upperneck 38.2211 2.69992 3.70516
head 16.719 -0.20073 3.57751
rclavicle -8.15017e-015 8.74653e-015
rhumerus -37.245 -12.3833 -74.7739
rradius 35.8737
rwrist 6.43165
rhand -17.0303 10.2915
rfingers 7.12502
rthumb 9.20611 -19.4875
lclavicle -8.15017e-015 8.74653e-015
lhumerus -31.9597 4.00433 84.3036
lradius 34.8565
lwrist -6.31222
lhand -20.0747 18.651
lfingers 7.12502
lthumb 6.26769 48.5382
rfemur -7.01081 3.20946 16.4922
rtibia 31.9962
rfoot -18.6058 0.106045
rtoes 4.17405
lfemur -12.9554 -5.25808 -14.6005
ltibia 26.005
lfoot -11.2774 -1.78087
ltoes -9.9333
4639
root 6.0022 17.853 -6.97004 365.787 -107.71 711.514
lowerback 12.4964 0.796145 1.52786
upperback 1.57351 1.2391 1.0941
thorax -5.34501 0.550478 0.0796534
lowerneck -18.4164 1.59549 -8.83971
upperneck 38.2722 2.69893 3.72155
head 16.7586 -0.19983 3.58876
rclavicle -2.94201e-014 -1.11319e-014
rhumerus -37.2347 -12.4127 -74.6394
rradius 35.7366
rwrist 6.41769
rhand -17.3681 10.1866
rfingers 7.12502
rthumb 8.88016 -19.6065
lclavicle -2.94201e-014 -1.11319e-014
lhumerus -32.0835 4.93311 84.0924
lradius 34.7508
lwrist -7.30922
lhand -19.5406 18.3654
lfingers 7.12502
lthumb 6.7833 48.2367
rfemur -6.70922 3.22183 16.2491
rtibia 31.5254
rfoot -18.4431 0.0927281
rtoes 4.21172
lfemur -12.931 -5.48887 -14.2234
ltibia 25.8027
lfoot -11.0519 -1.00345
ltoes -9.37964
4640
root 5.98074 17.8557 -6.94366 365.482 -107.427 711.869
lowerback 12.472 0.852091 1.6555
upperback 1.60415 1.33095 1.14849
thorax -5.29678 0.593322 0.0499614
lowerneck -18.4637 1.57825 -8.84763
upperneck 38.3271 2.67313 3.75456
head 16.8012 -0.207678 3.60453
rclavicle -4.19436e-014 1.98785e-014
rhumerus -37.19 -12.2749 -74.4904
rradius 35.5958
rwrist 6.20025
rhand -17.5591 9.95402
rfingers 7.12502
rthumb 8.69587 -19.8469
lclavicle -4.19436e-014 1.98785e-014
lhumerus -32.1677 6.27643 83.9031
lradius 34.6378
lwrist -8.4031
lhand -19.7127 18.5601
lfingers 7.12502
lthumb 6.61715 48.4367
rfemur -6.37512 3.30468 16.2808
rtibia 31.0441
rfoot -18.354 -0.149537
rtoes 1.96838
lfemur -12.902 -5.83141 -13.5482
ltibia 25.6196
lfoot -10.8285 -0.403347
ltoes -8.42429
4641
root 5.95549 17.8689 -6.91886 365.347 -107.251 712.07
lowerback 12.3699 0.942745 1.68958
upperback 1.62818 1.45398 1.17424
thorax -5.21349 0.654106 0.0390777
lowerneck -18.3924 1.56302 -8.83847
upperneck 38.2697 2.6458 3.75829
head 16.7554 -0.210088 3.59656
rclavicle 4.37326e-014 6.36111e-015
rhumerus -37.2014 -12.1979 -74.3679
rradius 35.5781
rwrist 6.00918
rhand -17.743 9.4007
rfingers 7.12502
rthumb 8.51832 -20.4075
lclavicle 4.37326e-014 6.36111e-015
lhumerus -32.2249 6.14281 84.2188
lradius 34.587
lwrist -7.22587
lhand -21.6014 20.3422
lfingers 7.12502
lthumb 4.7937 50.268
rfemur -6.08254 3.60339 16.2826
rtibia 30.6317
rfoot -18.3096 -0.535375
rtoes 0.79513
lfemur -12.8372 -5.90693 -12.9658
ltibia 25.3793
lfoot -10.6125 0.176479
ltoes -8.4054
4642
root 5.93319 17.8778 -6.89075 365.548 -107.007 711.918
lowerback 12.3407 0.946367 1.73326
upperback 1.61734 1.46095 1.08583
thorax -5.20514 0.656732 -0.0789431
lowerneck -18.2679 1.60819 -8.68311
upperneck 38.1956 2.68739 3.65947
head 16.6861 -0.177971 3.5269
rclavicle -3.62782e-014 1.82882e-014
rhumerus -37.2169 -12.0737 -74.397
rradius 35.5342
rwrist 5.67888
rhand -17.6537 9.09563
rfingers 7.12502
rthumb 8.60452 -20.709
lclavicle -3.62782e-014 1.82882e-014
lhumerus -32.2746 6.4415 83.7195
lradius 34.1406
lwrist -8.59814
lhand -20.3725 18.7129
lfingers 7.12502
lthumb 5.9802 48.6085
rfemur -5.92626 3.562 16.2056
rtibia 30.3231
rfoot -18.0587 -0.998677
rtoes -0.314324
lfemur -12.7809 -6.01404 -12.4909
ltibia 25.0458
lfoot -10.2606 0.716922
ltoes -8.14861
